<svg width="36" height="37" viewBox="0 0 36 37" fill="none" xmlns="http://www.w3.org/2000/svg">
<g clip-path="url(#clip0_19_183)">
<g clip-path="url(#clip1_19_183)">
<path d="M0 18.5001C0 8.63422 7.99785 0.636108 17.864 0.636108C27.7299 0.636108 35.728 8.63396 35.7277 18.5001C35.7277 28.366 27.7299 36.3641 17.864 36.3638C7.99811 36.3638 0 28.366 0 18.5001ZM17.864 35.0064C26.9802 35.0064 34.3703 27.6163 34.3703 18.5001C34.3703 9.38385 26.9802 1.99378 17.864 1.99353C8.74774 1.99353 1.35767 9.3836 1.35742 18.5001C1.35742 27.6163 8.74749 35.0064 17.864 35.0064Z" fill="#3288FF"/>
<g clip-path="url(#clip2_19_183)">
<g clip-path="url(#clip3_19_183)">
<path d="M27.0023 9.83965C26.5032 9.18296 25.6626 8.89402 24.9271 9.05162C22.9045 9.55071 19.122 10.9166 14.5777 14.5941C13.5795 14.3052 10.9002 13.7273 8.82505 15.3296C8.50984 15.566 8.32597 15.9075 8.2997 16.3015C8.27343 16.7218 8.43104 17.1421 8.74625 17.4573L11.7933 19.4799C11.8458 19.5324 11.8721 19.6112 11.9246 19.6638L13.6846 21.4237C13.4744 21.7914 13.5007 22.238 13.7896 22.5532C13.9735 22.7371 14.2099 22.8159 14.4463 22.8159C14.6039 22.8159 14.7878 22.7633 14.9191 22.6583L16.7316 24.4707C16.7316 24.4707 16.7579 24.4707 16.7579 24.497L18.7017 27.4127L18.8068 27.544C19.0957 27.833 19.4897 27.9906 19.8837 27.9906H19.9625C20.3565 27.9643 20.698 27.7805 20.9344 27.4915C22.9045 25.0224 21.9589 21.8702 21.9063 21.7389V21.7126C25.5313 17.2471 26.8972 13.5171 27.37 11.5208C27.5276 10.9429 27.37 10.3387 27.0023 9.83965ZM12.7915 16.1176L11.8458 16.9845C11.7933 17.037 11.7145 17.1158 11.662 17.1946L10.5062 16.4328C11.2679 16.0914 12.1085 16.0651 12.7915 16.1176ZM19.91 25.8367L19.2008 24.7859C19.2796 24.7334 19.3584 24.6546 19.4372 24.5758C19.7524 24.2343 20.0676 23.8928 20.3828 23.5776C20.4091 24.2343 20.3303 25.0749 19.91 25.8367ZM18.1763 23.2362C18.1501 23.2362 18.1238 23.2099 18.0713 23.1574L16.3113 21.3974L17.8611 19.8476C18.2289 19.4799 18.2289 18.902 17.8611 18.5605C17.4934 18.1928 16.9155 18.1928 16.574 18.5605L15.0242 20.1103L13.2643 18.3504C13.238 18.3241 13.2117 18.2716 13.1855 18.2453C18.5966 13.0968 23.1409 11.3894 25.3474 10.8378C25.3737 10.8378 25.4525 10.8641 25.505 10.9429C25.5575 11.0217 25.5838 11.0742 25.5838 11.0742C25.0585 13.307 23.3511 17.8513 18.1763 23.2362Z" fill="#3288FF"/>
<path d="M12.0034 21.7126C11.6357 21.3449 11.0578 21.3449 10.7163 21.7126C10.3486 22.0804 10.3486 22.6582 10.7163 22.9997L13.3956 25.7053C13.5795 25.8892 13.8159 25.968 14.0523 25.968C14.2887 25.968 14.5251 25.8892 14.709 25.7053C15.0767 25.3375 15.0767 24.7597 14.709 24.4182L12.0034 21.7126Z" fill="#3288FF"/>
<path d="M10.8477 23.9191C10.4799 23.5513 9.90202 23.5513 9.56054 23.9191C9.19279 24.2868 9.19279 24.8647 9.56054 25.2062L11.1891 26.8348C11.373 27.0187 11.6094 27.0975 11.8458 27.0975C12.0822 27.0975 12.3186 27.0187 12.5025 26.8348C12.8703 26.4671 12.8703 25.8892 12.5025 25.5477L10.8477 23.9191Z" fill="#3288FF"/>
</g>
</g>
</g>
</g>
<defs>
<clipPath id="clip0_19_183">
<rect width="35.7278" height="35.7278" fill="white" transform="translate(0 0.636108)"/>
</clipPath>
<clipPath id="clip1_19_183">
<rect width="35.7278" height="35.7278" fill="white" transform="translate(0 0.636108)"/>
</clipPath>
<clipPath id="clip2_19_183">
<rect width="19.134" height="18.9811" fill="white" transform="translate(8.29688 9.00943)"/>
</clipPath>
<clipPath id="clip3_19_183">
<rect width="19.134" height="18.9811" fill="white" transform="translate(8.29688 9.00943)"/>
</clipPath>
</defs>
</svg>
