<svg width="145" height="37" viewBox="0 0 145 37" fill="none" xmlns="http://www.w3.org/2000/svg">
<g clip-path="url(#clip0_19_199)">
<g clip-path="url(#clip1_19_199)">
<path d="M0 18.5001C0 8.63422 7.99785 0.636108 17.864 0.636108C27.7299 0.636108 35.728 8.63396 35.7277 18.5001C35.7277 28.366 27.7299 36.3641 17.864 36.3638C7.99811 36.3638 0 28.366 0 18.5001ZM17.864 35.0064C26.9802 35.0064 34.3703 27.6163 34.3703 18.5001C34.3703 9.38385 26.9802 1.99378 17.864 1.99353C8.74774 1.99353 1.35767 9.3836 1.35742 18.5001C1.35742 27.6163 8.74749 35.0064 17.864 35.0064Z" fill="#3288FF"/>
<g clip-path="url(#clip2_19_199)">
<g clip-path="url(#clip3_19_199)">
<path d="M27.0023 9.83965C26.5032 9.18296 25.6626 8.89402 24.9271 9.05162C22.9045 9.55071 19.122 10.9166 14.5777 14.5941C13.5795 14.3052 10.9002 13.7273 8.82505 15.3296C8.50984 15.566 8.32597 15.9075 8.2997 16.3015C8.27343 16.7218 8.43104 17.1421 8.74625 17.4573L11.7933 19.4799C11.8458 19.5324 11.8721 19.6112 11.9246 19.6638L13.6846 21.4237C13.4744 21.7914 13.5007 22.238 13.7896 22.5532C13.9735 22.7371 14.2099 22.8159 14.4463 22.8159C14.6039 22.8159 14.7878 22.7633 14.9191 22.6583L16.7316 24.4707C16.7316 24.4707 16.7579 24.4707 16.7579 24.497L18.7017 27.4127L18.8068 27.544C19.0957 27.833 19.4897 27.9906 19.8837 27.9906H19.9625C20.3565 27.9643 20.698 27.7805 20.9344 27.4915C22.9045 25.0224 21.9589 21.8702 21.9063 21.7389V21.7126C25.5313 17.2471 26.8972 13.5171 27.37 11.5208C27.5276 10.9429 27.37 10.3387 27.0023 9.83965ZM12.7915 16.1176L11.8458 16.9845C11.7933 17.037 11.7145 17.1158 11.662 17.1946L10.5062 16.4328C11.2679 16.0914 12.1085 16.0651 12.7915 16.1176ZM19.91 25.8367L19.2008 24.7859C19.2796 24.7334 19.3584 24.6546 19.4372 24.5758C19.7524 24.2343 20.0676 23.8928 20.3828 23.5776C20.4091 24.2343 20.3303 25.0749 19.91 25.8367ZM18.1763 23.2362C18.1501 23.2362 18.1238 23.2099 18.0713 23.1574L16.3113 21.3974L17.8611 19.8476C18.2289 19.4799 18.2289 18.902 17.8611 18.5605C17.4934 18.1928 16.9155 18.1928 16.574 18.5605L15.0242 20.1103L13.2643 18.3504C13.238 18.3241 13.2117 18.2716 13.1855 18.2453C18.5966 13.0968 23.1409 11.3894 25.3474 10.8378C25.3737 10.8378 25.4525 10.8641 25.505 10.9429C25.5575 11.0217 25.5838 11.0742 25.5838 11.0742C25.0585 13.307 23.3511 17.8513 18.1763 23.2362Z" fill="#3288FF"/>
<path d="M12.0034 21.7126C11.6357 21.3449 11.0578 21.3449 10.7163 21.7126C10.3486 22.0804 10.3486 22.6582 10.7163 22.9997L13.3956 25.7053C13.5795 25.8892 13.8159 25.968 14.0523 25.968C14.2887 25.968 14.5251 25.8892 14.709 25.7053C15.0767 25.3375 15.0767 24.7597 14.709 24.4182L12.0034 21.7126Z" fill="#3288FF"/>
<path d="M10.8477 23.9191C10.4799 23.5513 9.90202 23.5513 9.56054 23.9191C9.19279 24.2868 9.19279 24.8647 9.56054 25.2062L11.1891 26.8348C11.373 27.0187 11.6094 27.0975 11.8458 27.0975C12.0822 27.0975 12.3186 27.0187 12.5025 26.8348C12.8703 26.4671 12.8703 25.8892 12.5025 25.5477L10.8477 23.9191Z" fill="#3288FF"/>
</g>
</g>
</g>
</g>
<g clip-path="url(#clip4_19_199)">
<g clip-path="url(#clip5_19_199)">
<g clip-path="url(#clip6_19_199)">
<g clip-path="url(#clip7_19_199)">
<path d="M52.0247 25.8186H50.6466L48.3823 21.7522L46.1138 25.8186H44.7358L47.7081 20.5183L44.7358 15.2181H46.1138L48.3823 19.2845L50.6466 15.2181H52.0247L49.065 20.5183L52.0247 25.8186ZM66.6109 25.8186H65.3346V18.0548C65.3346 17.8004 65.2865 17.5601 65.1904 17.334C65.0943 17.1107 64.9629 16.9156 64.7961 16.7488C64.6321 16.5849 64.4371 16.4548 64.2109 16.3587C63.9876 16.2598 63.7488 16.2103 63.4944 16.2103H62.8626C62.6082 16.2103 62.3679 16.2598 62.1417 16.3587C61.9184 16.4548 61.722 16.5849 61.5523 16.7488C61.3827 16.9156 61.2499 17.1107 61.1538 17.334C61.0577 17.5601 61.0096 17.8004 61.0096 18.0548V25.8186H59.746V18.0548C59.746 17.8004 59.698 17.5601 59.6019 17.334C59.5058 17.1107 59.3729 16.9156 59.2033 16.7488C59.0337 16.5849 58.8372 16.4548 58.6139 16.3587C58.3878 16.2598 58.1475 16.2103 57.8931 16.2103H57.2613C57.0069 16.2103 56.7666 16.2598 56.5405 16.3587C56.3171 16.4548 56.1221 16.5849 55.9553 16.7488C55.7914 16.9156 55.6613 17.1107 55.5652 17.334C55.4663 17.5601 55.4168 17.8004 55.4168 18.0548V25.8186H54.1447V15.2181H54.5688L55.2642 16.2951C55.5525 15.9022 55.9157 15.5898 56.3539 15.358C56.792 15.1262 57.2712 15.0103 57.7913 15.0103H57.8931C58.4923 15.0103 59.0337 15.1588 59.5171 15.4556C60.0004 15.7524 60.3736 16.1453 60.6365 16.6343C60.7665 16.3941 60.929 16.1736 61.1241 15.9729C61.3163 15.7722 61.5297 15.6011 61.7644 15.4598C61.999 15.3185 62.2548 15.2082 62.5318 15.1291C62.806 15.0499 63.0915 15.0103 63.3883 15.0103H63.4944C63.9212 15.0103 64.324 15.0923 64.7028 15.2563C65.0844 15.4174 65.4166 15.6393 65.6992 15.922C65.9819 16.2047 66.2038 16.5354 66.365 16.9142C66.5289 17.2958 66.6109 17.7 66.6109 18.1269V25.8186ZM70.8511 25.8186H69.579V10.9737H70.8511V25.8186ZM85.7765 25.8186H85.3525L84.6486 24.7416C84.3603 25.1345 83.9985 25.4469 83.5631 25.6787C83.1278 25.9104 82.6515 26.0263 82.1342 26.0263H81.812C81.3851 26.0263 80.9823 25.9444 80.6035 25.7804C80.2219 25.6193 79.8897 25.3974 79.6071 25.1147C79.3244 24.832 79.1025 24.5013 78.9413 24.1225C78.7774 23.7409 78.6954 23.3367 78.6954 22.9098V18.1269C78.6954 17.7 78.7774 17.2958 78.9413 16.9142C79.1025 16.5354 79.3244 16.2047 79.6071 15.922C79.8897 15.6393 80.2219 15.4174 80.6035 15.2563C80.9823 15.0923 81.3851 15.0103 81.812 15.0103H82.1342C82.6091 15.0103 83.0501 15.1079 83.4571 15.3029C83.867 15.4951 84.2161 15.7637 84.5045 16.1086V10.9737H85.7765V25.8186ZM84.5045 22.9819V18.0548C84.5045 17.8004 84.4564 17.5601 84.3603 17.334C84.2642 17.1107 84.1327 16.9156 83.966 16.7488C83.802 16.5849 83.607 16.4548 83.3808 16.3587C83.1575 16.2598 82.9186 16.2103 82.6642 16.2103H81.812C81.5575 16.2103 81.3187 16.2598 81.0954 16.3587C80.8692 16.4548 80.6742 16.5849 80.5102 16.7488C80.3434 16.9156 80.212 17.1107 80.1159 17.334C80.0198 17.5601 79.9717 17.8004 79.9717 18.0548V22.9819C79.9717 23.2363 80.0198 23.4766 80.1159 23.7027C80.212 23.926 80.3434 24.1211 80.5102 24.2879C80.6742 24.4518 80.8692 24.5819 81.0954 24.678C81.3187 24.7769 81.5575 24.8264 81.812 24.8264H82.6642C82.9186 24.8264 83.1575 24.7769 83.3808 24.678C83.607 24.5819 83.802 24.4518 83.966 24.2879C84.1327 24.1211 84.2642 23.926 84.3603 23.7027C84.4564 23.4766 84.5045 23.2363 84.5045 22.9819ZM90.1269 12.6698H88.6429V10.9737H90.1269V12.6698ZM90.0209 25.8186H88.7489V15.2181H90.0209V25.8186ZM100.278 23.1261C100.278 23.5557 100.192 23.9472 100.019 24.3006C99.8469 24.6568 99.6122 24.9621 99.3154 25.2165C99.0186 25.4737 98.6752 25.673 98.2851 25.8143C97.895 25.9557 97.4865 26.0263 97.0597 26.0263H96.2116C95.7819 26.0263 95.3735 25.9444 94.9862 25.7804C94.5961 25.6193 94.2541 25.3974 93.9601 25.1147C93.6661 24.832 93.4315 24.5013 93.2562 24.1225C93.0809 23.7409 92.9933 23.3367 92.9933 22.9098V22.4858L94.2654 22.278V22.9819C94.2654 23.2363 94.3191 23.4766 94.4265 23.7027C94.5339 23.926 94.6767 24.1211 94.8548 24.2879C95.0328 24.4518 95.2392 24.5819 95.4738 24.678C95.7084 24.7769 95.9544 24.8264 96.2116 24.8264H97.0597C97.3141 24.8264 97.5586 24.7882 97.7932 24.7119C98.0278 24.6356 98.237 24.5267 98.4207 24.3854C98.6045 24.2441 98.7501 24.073 98.8575 23.8723C98.9621 23.6716 99.0144 23.4441 99.0144 23.1897C99.0144 22.8109 98.9324 22.4999 98.7684 22.2568C98.6017 22.0165 98.3826 21.8144 98.1112 21.6505C97.837 21.4894 97.5261 21.3551 97.1784 21.2477C96.8307 21.1402 96.4731 21.0328 96.1056 20.9254C95.741 20.8208 95.3848 20.6993 95.0371 20.5608C94.6866 20.4222 94.3756 20.2413 94.1042 20.018C93.8329 19.7919 93.6138 19.5106 93.447 19.1742C93.2802 18.835 93.1968 18.4138 93.1968 17.9106C93.1968 17.481 93.2802 17.0895 93.447 16.7361C93.6138 16.3799 93.8385 16.0746 94.1212 15.8202C94.4039 15.563 94.7332 15.3637 95.1092 15.2224C95.4851 15.081 95.8865 15.0103 96.3134 15.0103H97.0597C97.4865 15.0103 97.8907 15.0923 98.2723 15.2563C98.6511 15.4174 98.9819 15.6393 99.2645 15.922C99.5472 16.2047 99.7691 16.5354 99.9303 16.9142C100.094 17.2958 100.176 17.7 100.176 18.1269V18.1693L98.9041 18.3771V18.0548C98.9041 17.8004 98.8547 17.5601 98.7557 17.334C98.6596 17.1107 98.5296 16.9156 98.3656 16.7488C98.1988 16.5849 98.0038 16.4548 97.7805 16.3587C97.5543 16.2598 97.3141 16.2103 97.0597 16.2103H96.3134C96.059 16.2103 95.8201 16.2485 95.5968 16.3248C95.3706 16.4011 95.1756 16.51 95.0116 16.6513C94.8449 16.7926 94.7134 16.9637 94.6173 17.1644C94.5212 17.3651 94.4731 17.5926 94.4731 17.847C94.4731 18.2145 94.5551 18.5127 94.7191 18.7417C94.8858 18.9735 95.1049 19.1686 95.3763 19.3269C95.6505 19.4852 95.9614 19.618 96.3091 19.7254C96.6568 19.8329 97.0116 19.9431 97.3734 20.0562C97.7381 20.1721 98.0943 20.3021 98.442 20.4463C98.7896 20.5904 99.1006 20.777 99.3748 21.006C99.6462 21.2321 99.8652 21.5162 100.032 21.8582C100.196 22.2003 100.278 22.6229 100.278 23.1261ZM109.801 22.9098C109.801 23.3367 109.721 23.7409 109.56 24.1225C109.396 24.5013 109.172 24.832 108.89 25.1147C108.607 25.3974 108.276 25.6193 107.898 25.7804C107.519 25.9444 107.115 26.0263 106.685 26.0263H105.837C105.41 26.0263 105.006 25.9444 104.624 25.7804C104.245 25.6193 103.915 25.3974 103.632 25.1147C103.349 24.832 103.127 24.5013 102.966 24.1225C102.802 23.7409 102.72 23.3367 102.72 22.9098V18.1269C102.72 17.7 102.802 17.2958 102.966 16.9142C103.127 16.5354 103.349 16.2047 103.632 15.922C103.915 15.6393 104.245 15.4174 104.624 15.2563C105.006 15.0923 105.41 15.0103 105.837 15.0103H106.685C107.115 15.0103 107.519 15.0923 107.898 15.2563C108.276 15.4174 108.607 15.6393 108.89 15.922C109.172 16.2047 109.396 16.5354 109.56 16.9142C109.721 17.2958 109.801 17.7 109.801 18.1269V18.5509L108.529 18.7587V18.0548C108.529 17.8004 108.481 17.5601 108.385 17.334C108.286 17.1107 108.155 16.9156 107.991 16.7488C107.824 16.5849 107.629 16.4548 107.406 16.3587C107.182 16.2598 106.942 16.2103 106.685 16.2103H105.837C105.582 16.2103 105.342 16.2598 105.116 16.3587C104.893 16.4548 104.698 16.5849 104.531 16.7488C104.367 16.9156 104.237 17.1107 104.141 17.334C104.042 17.5601 103.992 17.8004 103.992 18.0548V22.9819C103.992 23.2363 104.042 23.4766 104.141 23.7027C104.237 23.926 104.367 24.1211 104.531 24.2879C104.698 24.4518 104.893 24.5819 105.116 24.678C105.342 24.7769 105.582 24.8264 105.837 24.8264H106.685C106.942 24.8264 107.182 24.7769 107.406 24.678C107.629 24.5819 107.824 24.4518 107.991 24.2879C108.155 24.1211 108.286 23.926 108.385 23.7027C108.481 23.4766 108.529 23.2363 108.529 22.9819V22.278L109.801 22.4858V22.9098ZM119.427 22.9098C119.427 23.3367 119.346 23.7409 119.185 24.1225C119.024 24.5013 118.802 24.832 118.519 25.1147C118.234 25.3974 117.902 25.6193 117.523 25.7804C117.144 25.9444 116.741 26.0263 116.314 26.0263H115.462C115.035 26.0263 114.632 25.9444 114.254 25.7804C113.872 25.6193 113.54 25.3974 113.257 25.1147C112.974 24.832 112.753 24.5013 112.591 24.1225C112.427 23.7409 112.346 23.3367 112.346 22.9098V18.1269C112.346 17.7 112.427 17.2958 112.591 16.9142C112.753 16.5354 112.974 16.2047 113.257 15.922C113.54 15.6393 113.872 15.4174 114.254 15.2563C114.632 15.0923 115.035 15.0103 115.462 15.0103H116.314C116.741 15.0103 117.144 15.0923 117.523 15.2563C117.902 15.4174 118.234 15.6393 118.519 15.922C118.802 16.2047 119.024 16.5354 119.185 16.9142C119.346 17.2958 119.427 17.7 119.427 18.1269V22.9098ZM118.155 22.9819V18.0548C118.155 17.8004 118.107 17.5601 118.01 17.334C117.914 17.1107 117.783 16.9156 117.616 16.7488C117.452 16.5849 117.257 16.4548 117.031 16.3587C116.808 16.2598 116.569 16.2103 116.314 16.2103H115.462C115.208 16.2103 114.969 16.2598 114.745 16.3587C114.519 16.4548 114.324 16.5849 114.16 16.7488C113.994 16.9156 113.862 17.1107 113.766 17.334C113.67 17.5601 113.622 17.8004 113.622 18.0548V22.9819C113.622 23.2363 113.67 23.4766 113.766 23.7027C113.862 23.926 113.994 24.1211 114.16 24.2879C114.324 24.4518 114.519 24.5819 114.745 24.678C114.969 24.7769 115.208 24.8264 115.462 24.8264H116.314C116.569 24.8264 116.808 24.7769 117.031 24.678C117.257 24.5819 117.452 24.4518 117.616 24.2879C117.783 24.1211 117.914 23.926 118.01 23.7027C118.107 23.4766 118.155 23.2363 118.155 22.9819ZM129.056 15.2181L125.295 25.8186H124.663L120.906 15.2181H122.183L124.943 23.2533L124.986 23.8003L125.028 23.2533L127.78 15.2181H129.056ZM137.613 22.9098C137.613 23.3367 137.532 23.7409 137.371 24.1225C137.21 24.5013 136.988 24.832 136.705 25.1147C136.42 25.3974 136.088 25.6193 135.709 25.7804C135.33 25.9444 134.927 26.0263 134.5 26.0263H133.648C133.221 26.0263 132.819 25.9444 132.44 25.7804C132.058 25.6193 131.726 25.3974 131.443 25.1147C131.161 24.832 130.939 24.5013 130.778 24.1225C130.616 23.7409 130.536 23.3367 130.536 22.9098V18.1269C130.536 17.7 130.616 17.2958 130.778 16.9142C130.939 16.5354 131.161 16.2047 131.443 15.922C131.726 15.6393 132.058 15.4174 132.44 15.2563C132.819 15.0923 133.221 15.0103 133.648 15.0103H134.5C134.927 15.0103 135.33 15.0923 135.709 15.2563C136.088 15.4174 136.42 15.6393 136.705 15.922C136.988 16.2047 137.21 16.5354 137.371 16.9142C137.532 17.2958 137.613 17.7 137.613 18.1269V20.6201H131.808V22.9819C131.808 23.2363 131.856 23.4766 131.952 23.7027C132.048 23.926 132.18 24.1211 132.346 24.2879C132.51 24.4518 132.705 24.5819 132.932 24.678C133.155 24.7769 133.394 24.8264 133.648 24.8264H134.5C134.755 24.8264 134.994 24.7769 135.217 24.678C135.443 24.5819 135.638 24.4518 135.802 24.2879C135.969 24.1211 136.1 23.926 136.197 23.7027C136.293 23.4766 136.341 23.2363 136.341 22.9819V22.278L137.613 22.4858V22.9098ZM136.341 19.6279V18.0548C136.341 17.8004 136.293 17.5601 136.197 17.334C136.1 17.1107 135.969 16.9156 135.802 16.7488C135.638 16.5849 135.443 16.4548 135.217 16.3587C134.994 16.2598 134.755 16.2103 134.5 16.2103H133.648C133.394 16.2103 133.155 16.2598 132.932 16.3587C132.705 16.4548 132.51 16.5849 132.346 16.7488C132.18 16.9156 132.048 17.1107 131.952 17.334C131.856 17.5601 131.808 17.8004 131.808 18.0548V19.6279H136.341ZM144.55 16.4308H143.278C143.02 16.4308 142.78 16.4789 142.557 16.575C142.334 16.6711 142.138 16.8025 141.972 16.9693C141.805 17.1333 141.673 17.3283 141.577 17.5545C141.481 17.7778 141.433 18.0166 141.433 18.2711V25.8186H140.161V15.2181H140.585L141.276 16.2951C141.567 15.9022 141.932 15.5898 142.37 15.358C142.808 15.1262 143.286 15.0103 143.803 15.0103H144.55V16.4308Z" fill="#3288FF"/>
</g>
</g>
</g>
</g>
<defs>
<clipPath id="clip0_19_199">
<rect width="35.7278" height="35.7278" fill="white" transform="translate(0 0.636108)"/>
</clipPath>
<clipPath id="clip1_19_199">
<rect width="35.7278" height="35.7278" fill="white" transform="translate(0 0.636108)"/>
</clipPath>
<clipPath id="clip2_19_199">
<rect width="19.134" height="18.9811" fill="white" transform="translate(8.29688 9.00943)"/>
</clipPath>
<clipPath id="clip3_19_199">
<rect width="19.134" height="18.9811" fill="white" transform="translate(8.29688 9.00943)"/>
</clipPath>
<clipPath id="clip4_19_199">
<rect width="99.8299" height="15.0527" fill="white" transform="translate(44.7278 10.9737)"/>
</clipPath>
<clipPath id="clip5_19_199">
<rect width="99.8299" height="15.0527" fill="white" transform="translate(44.7278 10.9737)"/>
</clipPath>
<clipPath id="clip6_19_199">
<rect width="99.8299" height="15.0527" fill="white" transform="translate(44.7278 10.9737)"/>
</clipPath>
<clipPath id="clip7_19_199">
<rect width="99.8299" height="15.0527" fill="white" transform="translate(44.7278 10.9737)"/>
</clipPath>
</defs>
</svg>
